<svg xmlns="http://www.w3.org/2000/svg" viewBox="0 0 1024 1024">
  <title>pālana held and nurtured app tile</title>
  <rect x="48" y="48" width="928" height="928" rx="168" fill="#efe4c8"/>

  <title>pālana held and nurtured sprout icon</title>
  <g fill="none" stroke="#14271f" stroke-linecap="round" stroke-linejoin="round">
    <path d="M212 544 A300 300 0 0 1 812 544" stroke-width="32"/>
  </g>
  <g fill="#14271f">
    <path d="M506 542 C501 482 471 432 418 400 C381 377 345 371 320 380 C331 420 357 457 395 479 C430 500 468 505 500 494 C506 509 510 524 512 542 Z"/>
    <path d="M518 542 C523 482 553 432 606 400 C643 377 679 371 704 380 C693 420 667 457 629 479 C594 500 556 505 524 494 C518 509 514 524 512 542 Z"/>
    <path d="M501 556 C501 508 503 460 508 412 C510 397 514 385 520 378 C526 386 529 399 530 414 C527 461 524 509 524 556 Z"/>
    <path d="M274 638 C231 623 196 591 172 553 C159 532 151 514 146 493 C200 505 244 533 276 574 C291 593 302 614 308 638 Z"/>
    <path d="M750 638 C793 623 828 591 852 553 C865 532 873 514 878 493 C824 505 780 533 748 574 C733 593 722 614 716 638 Z"/>
    <path d="M214 704 C283 683 349 672 414 676 C365 704 314 728 257 748 C238 738 223 724 214 704 Z"/>
    <path d="M810 704 C741 683 675 672 610 676 C659 704 710 728 767 748 C786 738 801 724 810 704 Z"/>
  </g>

</svg>
